<svg width="150" height="62" viewBox="0 0 150 62" fill="none" xmlns="http://www.w3.org/2000/svg">
<path d="M12.3757 8.80823V32.3961L23.2937 8.80823H12.3757Z" fill="#FCBB00"/>
<path d="M0 0V59.1374L4.72919 53.4676V4.72732H25.1824L27.369 0H0Z" fill="#FCBB00"/>
<path d="M33.6702 8.80823H23.2918L12.3757 32.3961V44.3034L28.1803 25.3566H23.586V18.0624H31.0583C32.1918 18.0624 33.1474 18.2048 33.9175 18.4765L41.0001 9.98865C39.0008 9.21107 36.5744 8.80823 33.6702 8.80823Z" fill="#F58000"/>
<path d="M0 59.1374L4.72732 53.4713V48.9239L0 59.1374ZM27.369 0L25.1805 4.72732H45.3901L49.3342 0H27.369Z" fill="#F58000"/>
<path d="M44.9985 12.5443C43.9193 11.4651 42.5946 10.6069 40.9982 9.98676L33.9175 18.4746C35.4802 19.0236 36.2784 20.1084 36.2784 21.6167V21.7367C36.2784 24.1668 34.3204 25.3547 30.8222 25.3547H28.1803L12.3738 44.3052V50.331H12.5013L25.6358 41.0769H23.5841V33.4247H32.3642C33.7489 33.4247 34.8656 33.6158 35.7275 33.9681L42.617 29.1134C42.1824 28.9391 41.7289 28.7742 41.2624 28.6206C44.9404 27.0186 47.6685 24.1725 47.6685 19.3683V19.2503C47.6685 16.4004 46.6605 14.2063 44.9985 12.5443Z" fill="#C61F42"/>
<path d="M66.9469 8.80823H54.7867V20.5394L68.3053 11.0136L66.9469 8.80823Z" fill="#C61F42"/>
<path d="M4.72732 54.4119V53.4713L0 59.1374L6.70968 54.41H4.72732V54.4119ZM49.3323 0L45.3882 4.72732H77.2297L83.9412 0H49.3323Z" fill="#C61F42"/>
<path d="M42.617 29.1134L35.7275 33.9681C37.2695 34.5902 37.9984 35.7181 37.9984 37.1627V37.2808C37.9984 39.711 35.9823 41.0769 32.4841 41.0769H25.6358L12.5013 50.331H23.9832L49.3174 41.0263C49.4448 40.3424 49.5085 39.6285 49.5085 38.8828V38.7647C49.5085 33.6514 46.8703 30.8315 42.617 29.1134Z" fill="#5F57AB"/>
<path d="M86.7593 8.80823L76.8531 24.8826L68.3053 11.0136L54.7867 20.5394V39.0177L66.0569 34.8769V26.6026L70.4226 33.2749L87.0178 27.1816V27.1797L87.4713 26.4846V27.0149L98.9195 22.8103V8.80823H86.7593Z" fill="#5F57AB"/>
<path d="M121.164 8.09619C111.571 8.09619 105.549 13.2657 105.116 20.5337L132.865 10.3409C129.494 8.85878 125.638 8.09619 121.164 8.09619Z" fill="#5F57AB"/>
<path d="M6.70968 54.4119L0 59.1374L12.8704 54.41H6.70968V54.4119ZM83.9412 0L77.2297 4.72732H145.273V5.78595L150 4.04904V0H83.9412Z" fill="#5F57AB"/>
<path d="M23.9832 50.331H33.7901C42.6583 50.331 48.2437 46.861 49.3174 41.0282L23.9832 50.331Z" fill="#1E82D0"/>
<path d="M87.4713 27.0148V50.331H98.9176V22.8121L87.4713 27.0148ZM70.4226 33.2748L76.6151 42.7369H76.8512L87.0141 27.1816L70.4226 33.2748ZM54.7867 39.0195V50.331H66.0569V34.8806L54.7867 39.0195Z" fill="#1E82D0"/>
<path d="M123.892 24.4666C118.138 23.1625 116.714 22.3325 116.714 20.4344V20.3164C116.714 18.8343 118.078 17.6464 120.866 17.6464C124.546 17.6464 128.698 19.0685 132.492 21.7385L138.246 13.6123C136.596 12.2895 134.812 11.1953 132.867 10.3427L105.116 20.5337C105.097 20.8129 105.09 21.0977 105.09 21.3825V21.5006C105.09 30.0427 111.912 32.5347 120.748 34.5527C126.384 35.8568 127.748 36.8048 127.748 38.5268V38.6448C127.748 40.4248 126.086 41.4928 123.002 41.4928C118.196 41.4928 113.63 39.7709 109.538 36.5088L103.132 44.1628C105.509 46.2895 108.299 47.9308 111.344 49.0738L135.43 46.8965C137.95 44.6069 139.376 41.4291 139.376 37.5206V37.4007C139.376 29.6286 133.444 26.5445 123.892 24.4666Z" fill="#1E82D0"/>
<path d="M12.8704 54.4119L0 59.1373L52.2853 54.41H12.8704V54.4119ZM145.273 5.78781V46.0065L150 45.5793V4.0509L145.273 5.78781Z" fill="#1E82D0"/>
<path d="M54.9047 55.8809C54.9047 53.5612 56.636 51.978 58.8657 51.978C60.3927 51.978 61.3333 52.7705 61.8973 53.6755L60.7656 54.2526C60.404 53.6306 59.6789 53.1546 58.8638 53.1546C57.3705 53.1546 56.2612 54.2976 56.2612 55.8809C56.2612 57.4641 57.3705 58.6071 58.8638 58.6071C59.6789 58.6071 60.4021 58.1424 60.7656 57.5091L61.8973 58.0862C61.3202 58.9912 60.3927 59.7838 58.8657 59.7838C56.636 59.7838 54.9047 58.2005 54.9047 55.8809Z" fill="#2AB63D"/>
<path d="M62.5887 56.9095C62.5887 55.3488 63.6642 54.0465 65.3955 54.0465C67.1492 54.0465 68.2135 55.3469 68.2135 56.9095C68.2135 58.4816 67.1492 59.7838 65.3955 59.7838C63.6642 59.7838 62.5887 58.4834 62.5887 56.9095ZM66.9787 56.9095C66.9787 55.9483 66.4129 55.0996 65.3955 55.0996C64.3893 55.0996 63.8235 55.9483 63.8235 56.9095C63.8235 57.882 64.3893 58.7308 65.3955 58.7308C66.4129 58.7326 66.9787 57.8839 66.9787 56.9095Z" fill="#2AB63D"/>
<path d="M73.1001 59.6489V56.2313C73.1001 55.3825 72.671 55.0996 72.0021 55.0996C71.3913 55.0996 70.8704 55.4612 70.5987 55.8359V59.6489H69.4108V54.1833H70.5987V54.9309C70.9603 54.5019 71.663 54.0484 72.523 54.0484C73.6997 54.0484 74.288 54.6817 74.288 55.8022V59.6489H73.1001Z" fill="#2AB63D"/>
<path d="M75.3523 58.935L75.8956 58.075C76.2797 58.4703 77.0386 58.8451 77.7506 58.8451C78.4626 58.8451 78.8261 58.5396 78.8261 58.1087C78.8261 57.0332 75.5228 57.8033 75.5228 55.7104C75.5228 54.8166 76.2929 54.0465 77.6719 54.0465C78.5994 54.0465 79.302 54.3744 79.7985 54.8166L79.3001 55.6542C78.9722 55.2813 78.3614 54.9984 77.6813 54.9984C77.0592 54.9984 76.662 55.2813 76.662 55.6654C76.662 56.6378 79.9653 55.9146 79.9653 58.0862C79.9653 59.0474 79.1615 59.7838 77.6906 59.7838C76.7669 59.7838 75.9181 59.4896 75.3523 58.935Z" fill="#2AB63D"/>
<path d="M84.8575 59.6489V58.9256C84.4621 59.3678 83.782 59.7856 82.922 59.7856C81.7453 59.7856 81.1682 59.1748 81.1682 58.0543V54.1852H82.3561V57.6253C82.3561 58.4741 82.7852 58.7345 83.4541 58.7345C84.0537 58.7345 84.5746 58.3954 84.8575 58.0225V54.1871H86.0454V59.6526H84.8575V59.6489Z" fill="#2AB63D"/>
<path d="M87.5837 59.6489V52.1017H88.7716V59.6489H87.5837Z" fill="#2AB63D"/>
<path d="M90.5479 58.3804V55.2232H89.6429V54.1814H90.5479V52.6881H91.7358V54.1814H92.845V55.2232H91.7358V58.0862C91.7358 58.4591 91.9175 58.7308 92.2567 58.7308C92.4834 58.7308 92.6989 58.6408 92.7888 58.5378L93.0717 59.4315C92.8563 59.6357 92.5059 59.7819 91.9513 59.7819C91.035 59.7838 90.5479 59.2854 90.5479 58.3804Z" fill="#2AB63D"/>
<path d="M93.7744 52.7799C93.7744 52.3733 94.1135 52.0436 94.5107 52.0436C94.9173 52.0436 95.2471 52.3715 95.2471 52.7799C95.2471 53.1865 94.9192 53.5163 94.5107 53.5163C94.1135 53.5163 93.7744 53.1865 93.7744 52.7799ZM93.9205 59.6489V54.1833H95.1084V59.6489H93.9205Z" fill="#2AB63D"/>
<path d="M100.336 59.6489V56.2313C100.336 55.3825 99.9069 55.0996 99.238 55.0996C98.6272 55.0996 98.1063 55.4612 97.8347 55.8359V59.6489H96.6467V54.1833H97.8347V54.9309C98.1963 54.5019 98.8989 54.0484 99.7589 54.0484C100.936 54.0484 101.524 54.6817 101.524 55.8022V59.6489H100.336Z" fill="#2AB63D"/>
<path d="M102.995 61.0523L103.549 60.1922C103.992 60.7019 104.556 60.893 105.281 60.893C106.062 60.893 106.9 60.5314 106.9 59.4109V58.7551C106.482 59.2985 105.858 59.6601 105.146 59.6601C103.754 59.6601 102.725 58.6539 102.725 56.8533C102.725 55.0883 103.744 54.0465 105.146 54.0465C105.835 54.0465 106.459 54.3632 106.9 54.9403V54.1814H108.087V59.3641C108.087 61.3333 106.628 61.8654 105.281 61.8654C104.353 61.8654 103.664 61.6631 102.995 61.0523ZM106.9 57.8726V55.8359C106.639 55.4293 106.051 55.0996 105.496 55.0996C104.557 55.0996 103.958 55.8003 103.958 56.8533C103.958 57.9063 104.557 58.6071 105.496 58.6071C106.051 58.6071 106.639 58.2792 106.9 57.8726Z" fill="#2AB63D"/>
<path d="M117.853 59.6489L117.299 58.2005H113.836L113.281 59.6489H111.777L114.741 52.1017H116.394L119.358 59.6489H117.853ZM115.567 53.4357L114.209 57.0332H116.924L115.567 53.4357Z" fill="#2AB63D"/>
<path d="M120.081 61.0523L120.636 60.1922C121.078 60.7019 121.642 60.893 122.367 60.893C123.148 60.893 123.986 60.5314 123.986 59.4109V58.7551C123.568 59.2985 122.944 59.6601 122.232 59.6601C120.84 59.6601 119.811 58.6539 119.811 56.8533C119.811 55.0883 120.83 54.0465 122.232 54.0465C122.921 54.0465 123.545 54.3632 123.986 54.9403V54.1814H125.174V59.3641C125.174 61.3333 123.714 61.8654 122.367 61.8654C121.439 61.8654 120.75 61.6631 120.081 61.0523ZM123.986 57.8726V55.8359C123.725 55.4293 123.137 55.0996 122.582 55.0996C121.644 55.0996 121.044 55.8003 121.044 56.8533C121.044 57.9063 121.644 58.6071 122.582 58.6071C123.137 58.6071 123.725 58.2792 123.986 57.8726Z" fill="#2AB63D"/>
<path d="M126.373 56.9095C126.373 55.3263 127.527 54.0465 129.146 54.0465C130.787 54.0465 131.838 55.3019 131.838 57.022V57.3049H127.617C127.707 58.1312 128.329 58.8095 129.359 58.8095C129.892 58.8095 130.525 58.594 130.909 58.2099L131.452 58.9912C130.909 59.5121 130.105 59.7838 129.234 59.7838C127.594 59.7838 126.373 58.6408 126.373 56.9095ZM129.146 55.0209C128.127 55.0209 127.664 55.8022 127.608 56.4692H130.686C130.662 55.8247 130.219 55.0209 129.146 55.0209Z" fill="#2AB63D"/>
<path d="M136.704 59.6489V56.2313C136.704 55.3825 136.275 55.0996 135.606 55.0996C134.996 55.0996 134.475 55.4612 134.203 55.8359V59.6489H133.015V54.1833H134.203V54.9309C134.565 54.5019 135.267 54.0484 136.127 54.0484C137.304 54.0484 137.892 54.6817 137.892 55.8022V59.6489H136.704Z" fill="#2AB63D"/>
<path d="M139.091 56.9095C139.091 55.2569 140.257 54.0465 141.921 54.0465C142.985 54.0465 143.629 54.5 144.014 55.019L143.232 55.7422C142.927 55.3132 142.509 55.0977 141.977 55.0977C140.982 55.0977 140.324 55.8453 140.324 56.9077C140.324 57.9719 140.98 58.7289 141.977 58.7289C142.509 58.7289 142.927 58.5022 143.232 58.0843L144.014 58.8076C143.629 59.3285 142.983 59.78 141.921 59.78C140.257 59.7838 139.091 58.5734 139.091 56.9095Z" fill="#2AB63D"/>
<path d="M144.997 60.7225C145.121 60.7787 145.314 60.8124 145.451 60.8124C145.824 60.8124 146.073 60.7 146.232 60.3365L146.504 59.7145L144.263 54.1815H145.529L147.126 58.2773L148.722 54.1815H150L147.364 60.6307C146.991 61.5582 146.333 61.8523 145.486 61.8636C145.316 61.8636 144.988 61.8299 144.819 61.7849L144.997 60.7225Z" fill="#2AB63D"/>
</svg>
